<svg xmlns="http://www.w3.org/2000/svg" width="38" height="38" viewBox="0 0 38 38"><defs><style>.a{fill:none;}</style></defs><path class="a" d="M0,0H38V38H0Z"/><path d="M16.4,2C10.2,2,4,2.783,4,8.264V23.141a5.46,5.46,0,0,0,5.426,5.481l-1.783,1.8A.784.784,0,0,0,8.2,31.754h1.69a.724.724,0,0,0,.543-.235l2.868-2.9h6.2l2.868,2.9a.786.786,0,0,0,.543.235H24.6a.776.776,0,0,0,.543-1.331l-1.767-1.8a5.46,5.46,0,0,0,5.426-5.481V8.264C28.806,2.783,22.6,2,16.4,2ZM9.426,25.49a2.349,2.349,0,1,1,2.326-2.349A2.334,2.334,0,0,1,9.426,25.49Zm5.426-10.962H7.1V8.264h7.752ZM23.38,25.49a2.349,2.349,0,1,1,2.326-2.349A2.334,2.334,0,0,1,23.38,25.49Zm2.326-10.962H17.953V8.264h7.752Z" transform="translate(2.597 1.298)"/></svg>